<svg width="32" height="30" viewBox="0 0 32 30" fill="none" xmlns="http://www.w3.org/2000/svg">
<path d="M7.24605 0.605264C8.17018 0.000236273 9.4098 0.258919 10.0148 1.18305C10.6199 2.10718 10.3612 3.3468 9.43705 3.95183C6.06938 6.15665 4 9.90063 4 14C4 20.6274 9.37258 26 16 26C22.6274 26 28 20.6274 28 14C28 9.99101 26.0217 6.3194 22.7751 4.09399C21.8641 3.46948 21.6318 2.22464 22.2563 1.31356C22.8808 0.402492 24.1256 0.170195 25.0367 0.794712C29.36 3.75824 32 8.65774 32 14C32 22.8366 24.8366 30 16 30C7.16344 30 0 22.8366 0 14C0 8.53707 2.76114 3.54154 7.24605 0.605264Z" fill="#FFDFDF"/>
</svg>
